Coordinates
version=1
nRows=37
nColumns=19
inDegrees=yes

Units are S.I. units (second, meters, Newtons, ...)
If the header above contains a line with 'inDegrees', this indicates whether rotational values are in degrees (yes) or radians (no).

endheader
time	subtalar_angle_l	subtalar_angle_r	pelvis_list	pelvis_rotation	pelvis_tilt	pelvis_tx	pelvis_ty	pelvis_tz	hip_flexion_l	hip_adduction_l	hip_rotation_l	hip_flexion_r	hip_adduction_r	hip_rotation_r	knee_flexion_l	knee_flexion_r	ankle_angle_l	ankle_angle_r
      1.96000000	     17.28816660	     17.25192514	     86.63508894	      9.32518962	    -11.66057541	      0.38673333	     -0.91707541	      0.88323261	     27.80324439	      1.18544547	     -5.92190770	     16.42005598	     10.93034069	      3.15141440	    -49.91597244	     -7.72271249	      6.72556913	      7.21920617
      1.97000000	     15.76255534	     17.42732809	     87.12268854	      9.06722236	    -11.75786601	      0.39804138	     -0.91590851	      0.88506266	     29.05192545	      0.67875107	     -5.22425531	     14.85327043	     10.42031967	      3.48026769	    -48.40637164	     -6.23354779	      7.82143730	      7.02322234
      1.98000000	     14.44574410	     17.58686633	     87.60589170	      8.73962372	    -11.82909121	      0.40925012	     -0.91464962	      0.88662633	     30.17207770	      0.19177785	     -4.48519784	     13.31050799	      9.90016669	      3.86651352	    -46.62109071	     -4.81926453	      8.69279174	      6.82552616
      1.99000000	     13.37589497	     17.72892122	     88.06596704	      8.33540136	    -11.87174809	      0.42036817	     -0.91329989	      0.88789617	     31.16533045	     -0.24876611	     -3.71025574	     11.80885505	      9.38660178	      4.30815765	    -44.57948819	     -3.51321450	      9.36577340	      6.64618196
      2.00000000	     13.01685488	     17.93127321	     88.47596309	      7.84367420	    -11.93670814	      0.43138109	     -0.91187998	      0.88887620	     32.09666085	     -0.60223289	     -2.88972666	     10.40592746	      8.90937937	      4.87706551	    -42.30379085	     -2.32692897	      9.65388118	      6.62532460
      2.01000000	     12.23724615	     17.99157109	     88.84596806	      7.30284446	    -11.86056624	      0.44238956	     -0.91037576	      0.88949328	     32.77095220	     -0.90357834	     -2.11477252	      8.96300738	      8.44531226	      5.31567501	    -39.79863793	     -1.29367003	     10.24879186	      6.41133908
      2.02000000	     12.11672202	     18.16570091	     89.14599222	      6.69822393	    -11.87607561	      0.45329527	     -0.90883148	      0.88984578	     33.44485477	     -1.11836343	     -1.39031565	      7.69096025	      8.03989418	      5.90351065	    -37.07961910	     -0.38360202	     10.40063747	      6.42808038
      2.03000000	     12.13428478	     18.31179474	     89.37630234	      6.02483942	    -11.80769053	      0.46421366	     -0.90723734	      0.88985862	     33.92336679	     -1.23006152	     -0.69135640	      6.43016260	      7.68482300	      6.46116425	    -34.16800390	      0.37233043	     10.55405772	      6.44072813
      2.04000000	     12.36891141	     18.43411337	     89.52425801	      5.28975005	    -11.69884554	      0.47514842	     -0.90561847	      0.88954931	     34.25144053	     -1.22816900	     -0.03717477	      5.21175648	      7.39687017	      7.04077427	    -31.09002801	      0.98964919	     10.66170287	      6.47527198
      2.05000000	     12.83534144	     18.56051189	     89.59707240	      4.51293286	    -11.55428072	      0.48613693	     -0.90398176	      0.88893147	     34.41988864	     -1.13591805	      0.52650349	      4.02053643	      7.16941230	      7.64126811	    -27.86446742	      1.49489003	     10.69198647	      6.55897017
      2.06000000	     14.54158976	     18.51738811	     89.58022075	      3.68368863	    -11.38354980	      0.49720760	     -0.90235071	      0.88799519	     34.47007016	     -0.90817163	      1.11819166	      2.90545900	      7.01996028	      8.16736468	    -24.57213936	      1.81951740	     10.56255557	      6.74219475
      2.07000000	     15.65703841	     18.67311121	     89.48932513	      2.82523423	    -11.15331983	      0.50841624	     -0.90071640	      0.88676075	     34.32474557	     -0.61020026	      1.54035430	      1.76841011	      6.93146501	      8.71302860	    -21.22336399	      2.05225295	     10.39892204	      6.95342754
      2.08000000	     16.15854202	     18.86583757	     89.33212046	      1.96744312	    -10.83019282	      0.51981050	     -0.89910258	      0.88522691	     33.95147589	     -0.26465033	      1.71651867	      0.56756047	      6.89957227	      9.22451901	    -17.88713985	      2.19862360	     10.30937927	      7.10787160
      2.09000000	     18.01569474	     19.09025444	     89.10505674	      1.06284024	    -10.49191928	      0.53140832	     -0.89751213	      0.88342719	     33.55099963	      0.22161056	      2.11017198	     -0.58655281	      6.92238444	      9.69909251	    -14.76015319	      2.19819202	      9.75493294	      7.49083069
      2.10000000	     18.52408150	     19.28011975	     88.84852610	      0.20438735	    -10.05633292	      0.54324099	     -0.89595362	      0.88140437	     32.94108097	      0.68667077	      2.13450034	     -1.83604675	      6.96631114	     10.13674804	    -11.81312759	      2.14166637	      9.64908392	      7.64333357
      2.11000000	     20.29140881	     19.59933876	     88.57181613	     -0.67064273	     -9.63010276	      0.55530110	     -0.89442600	      0.87924191	     32.41375619	      1.22830550	      2.49514258	     -3.02209600	      7.01611141	     10.53929596	     -9.30435397	      1.94033603	      8.90753544	      8.06698379
      2.12000000	     20.76036682	     19.78732559	     88.32158855	     -1.48045083	     -9.16266084	      0.56758169	     -0.89292138	      0.87701776	     31.80569894	      1.69121128	      2.57080772	     -4.23953496	      7.03144512	     10.92027404	     -7.16613805	      1.67395478	      8.73533858	      8.21858379
      2.13000000	     22.04656662	     20.12238761	     88.12544274	     -2.26932788	     -8.79655378	      0.58004616	     -0.89140285	      0.87486779	     31.40181124	      2.10707758	      2.92607966	     -5.26099908	      6.98421141	     11.19001723	     -5.57086903	      1.21794301	      7.85776881	      8.61348716
      2.14000000	     22.37867263	     20.27376155	     87.99436871	     -2.95416579	     -8.46943429	      0.59266941	     -0.88990940	      0.87284662	     31.01745466	      2.37750344	      2.89620400	     -6.21356106	      6.87861011	     11.47745641	     -4.41254748	      0.67966553	      7.65639755	      8.71128062
      2.15000000	     23.00759949	     20.55977273	     87.95675241	     -3.58376566	     -8.28542690	      0.60542639	     -0.88837212	      0.87105937	     30.85840541	      2.52031584	      2.95277349	     -6.88909816	      6.68552995	     11.60900355	     -3.78514493	     -0.08611980	      6.77846042	      8.94784625
      2.16000000	     23.09208212	     20.65512628	     88.00921806	     -4.10588719	     -8.12248003	      0.61835093	     -0.88683683	      0.86949603	     30.73711035	      2.49895260	      2.76157371	     -7.47337311	      6.42200721	     11.70880203	     -3.62301988	     -0.98573396	      6.42838239	      8.97340011
      2.17000000	     22.97815321	     20.72125198	     88.13247602	     -4.53445618	     -8.13286621	      0.63135547	     -0.88526761	      0.86823297	     30.83010902	      2.33449755	      2.36489879	     -7.71740465	      6.11638005	     11.63045961	     -3.91785194	     -2.15011518	      5.83255402	      8.93823062
      2.18000000	     22.44687645	     20.85854465	     88.32553847	     -4.88115373	     -8.16451335	      0.64452434	     -0.88367626	      0.86723771	     30.94819807	      2.03150834	      1.77024574	     -7.86007501	      5.77042159	     11.63436760	     -4.59816685	     -3.47207374	      5.09425550	      8.76034385
      2.19000000	     22.22089912	     20.75709115	     88.60398678	     -5.11597283	     -8.21628681	      0.65785667	     -0.88203864	      0.86647216	     31.12963113	      1.56334522	      1.07651720	     -7.80324709	      5.37543070	     11.36841617	     -5.67962138	     -5.07372369	      4.85865329	      8.55241093
      2.20000000	     20.69858649	     20.78155114	     88.87593923	     -5.25572313	     -8.29480389	      0.67129367	     -0.88040928	      0.86593118	     31.28798919	      1.01105803	     -0.00241556	     -7.60111644	      5.03393484	     11.12127463	     -6.99916061	     -6.88235022	      4.15279994	      7.77864195
      2.21000000	     19.84579222	     20.64051386	     89.15740121	     -5.29435083	     -8.41124557	      0.68483965	     -0.87876265	      0.86558164	     31.51086750	      0.36918950	     -1.14083288	     -7.19764651	      4.72867559	     10.76118681	     -8.60988466	     -8.95278147	      3.95156578	      7.07415401
      2.22000000	     18.71066903	     20.44228211	     89.52650866	     -5.30019216	     -8.39477330	      0.69859551	     -0.87701962	      0.86536532	     31.54529547	     -0.40471459	     -2.20475466	     -6.75181519	      4.34566140	     10.25902136	    -10.32462799	    -11.28879854	      3.80999213	      6.00214213
      2.23000000	     17.81657175	     20.18675933	     89.86925281	     -5.22685698	     -8.37100233	      0.71241035	     -0.87528213	      0.86528319	     31.53909427	     -1.20889623	     -3.28194456	     -6.15687946	      4.02451083	      9.69705601	    -12.13569428	    -13.85281176	      3.85679653	      4.81665412
      2.24000000	     17.03065440	     19.88040924	     90.22085669	     -5.10493006	     -8.28995195	      0.72629222	     -0.87352841	      0.86531847	     31.40217827	     -2.05273535	     -4.29008829	     -5.46290735	      3.71443206	      9.08924076	    -13.92574524	    -16.62752966	      4.07114081	      3.43798684
      2.25000000	     16.36666072	     19.52307649	     90.57228067	     -4.94246724	     -8.17610675	      0.74017957	     -0.87177222	      0.86547529	     31.14761658	     -2.90768652	     -5.19126770	     -4.64865060	      3.41819716	      8.44649881	    -15.62784761	    -19.58260870	      4.46496964	      1.91359988
      2.26000000	     15.80328151	     19.11148447	     90.92142117	     -4.74845207	     -8.03224455	      0.75402610	     -0.87003018	      0.86575664	     30.76973625	     -3.75078666	     -5.95482949	     -3.72485413	      3.13251305	      7.79095425	    -17.18761546	    -22.67368797	      5.03296260	      0.28374598
      2.27000000	     15.37041300	     18.65059338	     91.26304321	     -4.53479397	     -7.88864283	      0.76777123	     -0.86831487	      0.86618380	     30.28604584	     -4.55927607	     -6.57808921	     -2.66886024	      2.85834315	      7.14007152	    -18.54836141	    -25.86452939	      5.74536084	     -1.33687737
      2.28000000	     15.07222938	     18.15822639	     91.59059733	     -4.30607942	     -7.77728746	      0.78136631	     -0.86663093	      0.86677263	     29.73026643	     -5.31429145	     -7.05539538	     -1.46210022	      2.59682207	      6.49898399	    -19.68431306	    -29.10782250	      6.57339033	     -2.85279914
      2.29000000	     14.87709379	     17.62448394	     91.89505593	     -4.06257823	     -7.68991291	      0.79477753	     -0.86499769	      0.86752264	     29.09455661	     -6.00024169	     -7.40854350	     -0.13372067	      2.35330909	      5.86343169	    -20.58438777	    -32.34759567	      7.48354167	     -4.19753697
      2.30000000	     14.79211207	     17.09601390	     92.17712996	     -3.82161159	     -7.67130059	      0.80797009	     -0.86341188	      0.86844805	     28.42981007	     -6.61024328	     -7.63857395	      1.35214544	      2.12497377	      5.25547161	    -21.24144116	    -35.54960863	      8.40796919	     -5.23499041
      2.31000000	     14.80960048	     16.62784778	     92.40227417	     -3.52147701	     -7.71623674	      0.82092094	     -0.86192919	      0.86954174	     27.72501267	     -7.13814073	     -7.88342844	      2.96226958	      1.94031267	      4.57084397	    -21.66434927	    -38.64445028	      9.19528292	     -5.86013482
      2.32000000	     14.82975064	     15.96075769	     92.61360608	     -3.32002996	     -7.75979210	      0.83367772	     -0.86044048	      0.87077640	     26.95207821	     -7.55317007	     -7.84679220	      4.62461317	      1.75182244	      4.02570210	    -21.87010093	    -41.61364718	     10.28125887	     -6.38384862
